<svg width="301" height="45" viewBox="0 0 301 45" fill="none" xmlns="http://www.w3.org/2000/svg">
<path d="M0 22.5C0 34.9264 10.0736 45 22.5 45H278.5C290.926 45 301 34.9264 301 22.5C301 10.0736 290.926 0 278.5 0H22.5C10.0736 0 0 10.0736 0 22.5Z" fill="#F7D05E"/>
<path d="M51.8047 23.2734C51.8047 25.1641 51.3359 26.6172 50.3984 27.6328C49.4609 28.6484 48.1172 29.1562 46.3672 29.1562C44.6172 29.1562 43.2734 28.6484 42.3359 27.6328C41.3984 26.6172 40.9297 25.1589 40.9297 23.2578C40.9297 21.3568 41.3984 19.9062 42.3359 18.9062C43.2786 17.901 44.6276 17.3984 46.3828 17.3984C48.138 17.3984 49.4792 17.9036 50.4062 18.9141C51.3385 19.9245 51.8047 21.3776 51.8047 23.2734ZM43.4688 23.2734C43.4688 24.5495 43.7109 25.5104 44.1953 26.1562C44.6797 26.8021 45.4036 27.125 46.3672 27.125C48.2995 27.125 49.2656 25.8411 49.2656 23.2734C49.2656 20.7005 48.3047 19.4141 46.3828 19.4141C45.4193 19.4141 44.6927 19.7396 44.2031 20.3906C43.7135 21.0365 43.4688 21.9974 43.4688 23.2734ZM60.7031 25.5312H60.8125C61.651 25.5312 62.3073 25.3125 62.7812 24.875C63.2604 24.4323 63.5 23.8281 63.5 23.0625C63.5 22.3542 63.2786 21.7865 62.8359 21.3594C62.3932 20.9271 61.7891 20.7109 61.0234 20.7109H60.7031V25.5312ZM58.5234 29.1562V27.3984H58.3516C57.3828 27.3984 56.5339 27.2292 55.8047 26.8906C55.0755 26.5469 54.5 26.0339 54.0781 25.3516C53.6615 24.6693 53.4531 23.9115 53.4531 23.0781C53.4531 22.2708 53.638 21.5443 54.0078 20.8984C54.3828 20.2474 54.9219 19.7396 55.625 19.375C56.3281 19.0052 57.1562 18.8203 58.1094 18.8203H58.5234V17.4141H60.7031V18.8203H61.1172C62.0651 18.8203 62.8906 19.0052 63.5938 19.375C64.2969 19.7396 64.8359 20.2474 65.2109 20.8984C65.5859 21.5443 65.7734 22.2708 65.7734 23.0781C65.7734 23.9115 65.5625 24.6693 65.1406 25.3516C64.724 26.0339 64.151 26.5469 63.4219 26.8906C62.6927 27.2292 61.8438 27.3984 60.875 27.3984H60.7031V29.1562H58.5234ZM58.5234 20.7109H58.2031C57.4375 20.7109 56.8333 20.9245 56.3906 21.3516C55.9479 21.7786 55.7266 22.349 55.7266 23.0625C55.7266 23.8125 55.9609 24.4115 56.4297 24.8594C56.8984 25.3073 57.5599 25.5312 58.4141 25.5312H58.5234V20.7109ZM78.3047 23.2734C78.3047 25.1641 77.8359 26.6172 76.8984 27.6328C75.9609 28.6484 74.6172 29.1562 72.8672 29.1562C71.1172 29.1562 69.7734 28.6484 68.8359 27.6328C67.8984 26.6172 67.4297 25.1589 67.4297 23.2578C67.4297 21.3568 67.8984 19.9062 68.8359 18.9062C69.7786 17.901 71.1276 17.3984 72.8828 17.3984C74.638 17.3984 75.9792 17.9036 76.9062 18.9141C77.8385 19.9245 78.3047 21.3776 78.3047 23.2734ZM69.9688 23.2734C69.9688 24.5495 70.2109 25.5104 70.6953 26.1562C71.1797 26.8021 71.9036 27.125 72.8672 27.125C74.7995 27.125 75.7656 25.8411 75.7656 23.2734C75.7656 20.7005 74.8047 19.4141 72.8828 19.4141C71.9193 19.4141 71.1927 19.7396 70.7031 20.3906C70.2135 21.0365 69.9688 21.9974 69.9688 23.2734ZM83.0938 22.9531H83.8906C84.6354 22.9531 85.1927 22.8073 85.5625 22.5156C85.9323 22.2188 86.1172 21.7891 86.1172 21.2266C86.1172 20.6589 85.9609 20.2396 85.6484 19.9688C85.3411 19.6979 84.8568 19.5625 84.1953 19.5625H83.0938V22.9531ZM88.5625 21.1406C88.5625 22.3698 88.1771 23.3099 87.4062 23.9609C86.6406 24.612 85.5495 24.9375 84.1328 24.9375H83.0938V29H80.6719V17.5781H84.3203C85.7057 17.5781 86.7578 17.8776 87.4766 18.4766C88.2005 19.0703 88.5625 19.9583 88.5625 21.1406ZM95.5547 29L92.8047 20.0391H92.7344C92.8333 21.862 92.8828 23.0781 92.8828 23.6875V29H90.7188V17.5781H94.0156L96.7188 26.3125H96.7656L99.6328 17.5781H102.93V29H100.672V23.5938C100.672 23.3385 100.674 23.0443 100.68 22.7109C100.69 22.3776 100.727 21.4922 100.789 20.0547H100.719L97.7734 29H95.5547ZM105.812 17.5781H107.992V23.0938L107.961 24.5703L107.883 26.25H107.93L113.203 17.5781H116.102V29H113.945V23.5156C113.945 22.7812 113.992 21.6927 114.086 20.25H114.023L108.727 29H105.812V17.5781ZM123.391 29H120.969V19.5938H117.867V17.5781H126.492V19.5938H123.391V29ZM136.297 25.4297C136.297 27.8099 134.724 29 131.578 29H128.25V17.5781H130.672V21.9609H131.625C133.115 21.9609 134.266 22.263 135.078 22.8672C135.891 23.4714 136.297 24.3255 136.297 25.4297ZM130.672 27.0156H131.484C132.302 27.0156 132.901 26.8854 133.281 26.625C133.661 26.3594 133.852 25.9609 133.852 25.4297C133.852 24.9036 133.659 24.526 133.273 24.2969C132.888 24.0625 132.227 23.9453 131.289 23.9453H130.672V27.0156ZM151.664 29H149.25V19.5938H145.047V29H142.625V17.5781H151.664V29ZM164.914 23.2734C164.914 25.1641 164.445 26.6172 163.508 27.6328C162.57 28.6484 161.227 29.1562 159.477 29.1562C157.727 29.1562 156.383 28.6484 155.445 27.6328C154.508 26.6172 154.039 25.1589 154.039 23.2578C154.039 21.3568 154.508 19.9062 155.445 18.9062C156.388 17.901 157.737 17.3984 159.492 17.3984C161.247 17.3984 162.589 17.9036 163.516 18.9141C164.448 19.9245 164.914 21.3776 164.914 23.2734ZM156.578 23.2734C156.578 24.5495 156.82 25.5104 157.305 26.1562C157.789 26.8021 158.513 27.125 159.477 27.125C161.409 27.125 162.375 25.8411 162.375 23.2734C162.375 20.7005 161.414 19.4141 159.492 19.4141C158.529 19.4141 157.802 19.7396 157.312 20.3906C156.823 21.0365 156.578 21.9974 156.578 23.2734ZM165.922 26.9844H166.805C167.56 25.474 168.156 23.9661 168.594 22.4609C169.031 20.9505 169.357 19.3229 169.57 17.5781H176.227V26.9844H177.75V32.3281H175.414V29H168.258V32.3281H165.922V26.9844ZM171.492 19.5938C171.326 20.7865 171.047 22.0495 170.656 23.3828C170.271 24.7161 169.836 25.9167 169.352 26.9844H173.812V19.5938H171.492ZM188.555 29H186.141V19.5938H181.938V29H179.516V17.5781H188.555V29ZM191.438 17.5781H193.617V23.0938L193.586 24.5703L193.508 26.25H193.555L198.828 17.5781H201.727V29H199.57V23.5156C199.57 22.7812 199.617 21.6927 199.711 20.25H199.648L194.352 29H191.438V17.5781ZM209.461 19.4297C208.549 19.4297 207.844 19.7734 207.344 20.4609C206.844 21.1432 206.594 22.0964 206.594 23.3203C206.594 25.8672 207.549 27.1406 209.461 27.1406C210.263 27.1406 211.234 26.9401 212.375 26.5391V28.5703C211.438 28.9609 210.391 29.1562 209.234 29.1562C207.573 29.1562 206.302 28.6536 205.422 27.6484C204.542 26.638 204.102 25.1901 204.102 23.3047C204.102 22.1172 204.318 21.0781 204.75 20.1875C205.182 19.2917 205.802 18.6068 206.609 18.1328C207.422 17.6536 208.372 17.4141 209.461 17.4141C210.57 17.4141 211.685 17.6823 212.805 18.2188L212.023 20.1875C211.596 19.9844 211.167 19.8073 210.734 19.6562C210.302 19.5052 209.878 19.4297 209.461 19.4297ZM224.125 29H221.375L217.234 23.2109V29H214.812V17.5781H217.234V23.1094L221.328 17.5781H223.906L219.742 23.0625L224.125 29ZM234.57 17.5781L231.039 25.6562C230.596 26.6719 230.18 27.401 229.789 27.8438C229.404 28.2865 228.945 28.6172 228.414 28.8359C227.883 29.0495 227.237 29.1562 226.477 29.1562C225.826 29.1562 225.219 29.0781 224.656 28.9219V26.8438C225.115 27.0312 225.685 27.125 226.367 27.125C226.799 27.125 227.148 27.026 227.414 26.8281C227.68 26.625 227.901 26.276 228.078 25.7812L224.125 17.5781H226.688L229.5 23.9453H229.578L229.719 23.5547L232.078 17.5781H234.57Z" fill="white"/>
<path d="M262.061 24.0607C262.646 23.4749 262.646 22.5251 262.061 21.9393L252.515 12.3934C251.929 11.8076 250.979 11.8076 250.393 12.3934C249.808 12.9792 249.808 13.9289 250.393 14.5147L258.879 23L250.393 31.4853C249.808 32.0711 249.808 33.0208 250.393 33.6066C250.979 34.1924 251.929 34.1924 252.515 33.6066L262.061 24.0607ZM260 24.5H261V21.5H260V24.5Z" fill="white"/>
</svg>
